<?xml version="1.0" encoding="iso-8859-1"?>
<!-- Generator: Adobe Illustrator 19.1.0, SVG Export Plug-In . SVG Version: 6.00 Build 0)  -->
<svg version="1.1" id="Capa_1" xmlns="http://www.w3.org/2000/svg" xmlns:xlink="http://www.w3.org/1999/xlink" x="0px" y="0px"
	 viewBox="0 0 223.66 223.66" style="enable-background:new 0 0 223.66 223.66;" xml:space="preserve">
<g>
	<path d="M174.289,75.313c20.135,0,36.517,16.382,36.517,36.524c0,20.129-16.382,36.511-36.517,36.511
		c-20.142,0-36.53-16.382-36.53-36.511C137.759,91.695,154.148,75.313,174.289,75.313 M174.289,62.459
		c-27.263,0-49.384,22.102-49.384,49.377s22.115,49.365,49.384,49.365s49.371-22.095,49.371-49.365
		C223.654,84.561,201.552,62.459,174.289,62.459L174.289,62.459z M49.371,75.313c20.135,0,36.517,16.382,36.517,36.524
		c0,20.129-16.382,36.511-36.517,36.511s-36.517-16.382-36.517-36.511C12.854,91.695,29.236,75.313,49.371,75.313 M49.371,62.459
		C22.108,62.459,0,84.561,0,111.837s22.102,49.365,49.371,49.365s49.371-22.095,49.371-49.365
		C98.735,84.561,76.634,62.459,49.371,62.459L49.371,62.459z"/>
</g>
<g>
</g>
<g>
</g>
<g>
</g>
<g>
</g>
<g>
</g>
<g>
</g>
<g>
</g>
<g>
</g>
<g>
</g>
<g>
</g>
<g>
</g>
<g>
</g>
<g>
</g>
<g>
</g>
<g>
</g>
</svg>
